<mxfile host="app.diagrams.net" agent="Mozilla/5.0 (X11; Linux x86_64; rv:128.0) Gecko/20100101 Firefox/128.0" version="27.0.6">
  <diagram name="Page-1" id="4ubJQzWttPGJfMhkH8R_">
    <mxGraphModel dx="1218" dy="702" grid="1" gridSize="10" guides="1" tooltips="1" connect="1" arrows="1" fold="1" page="1" pageScale="1" pageWidth="850" pageHeight="1100" background="#ffffff" math="0" shadow="0">
      <root>
        <mxCell id="0" />
        <mxCell id="1" parent="0" />
        <mxCell id="v_gDfItxkTuYzbll6fDR-17" value="Test Framework" style="rounded=1;whiteSpace=wrap;html=1;fillColor=#fff2cc;strokeColor=#d6b656;" parent="1" vertex="1">
          <mxGeometry x="320" y="440" width="200" height="190" as="geometry" />
        </mxCell>
        <mxCell id="v_gDfItxkTuYzbll6fDR-4" value="&lt;div&gt;Call&amp;nbsp;&lt;/div&gt;&lt;div&gt;QInvokable Function&lt;/div&gt;" style="edgeStyle=orthogonalEdgeStyle;rounded=0;orthogonalLoop=1;jettySize=auto;html=1;exitX=0;exitY=0.25;exitDx=0;exitDy=0;" parent="1" source="v_gDfItxkTuYzbll6fDR-17" target="v_gDfItxkTuYzbll6fDR-3" edge="1">
          <mxGeometry relative="1" as="geometry">
            <mxPoint x="360" y="480" as="sourcePoint" />
          </mxGeometry>
        </mxCell>
        <mxCell id="v_gDfItxkTuYzbll6fDR-10" style="edgeStyle=orthogonalEdgeStyle;rounded=0;orthogonalLoop=1;jettySize=auto;html=1;exitX=0.5;exitY=0;exitDx=0;exitDy=0;entryX=0.5;entryY=0;entryDx=0;entryDy=0;" parent="1" source="v_gDfItxkTuYzbll6fDR-3" target="v_gDfItxkTuYzbll6fDR-5" edge="1">
          <mxGeometry relative="1" as="geometry" />
        </mxCell>
        <mxCell id="v_gDfItxkTuYzbll6fDR-11" value="Forward Command Objects" style="edgeLabel;html=1;align=center;verticalAlign=middle;resizable=0;points=[];" parent="v_gDfItxkTuYzbll6fDR-10" vertex="1" connectable="0">
          <mxGeometry x="0.1061" y="-1" relative="1" as="geometry">
            <mxPoint as="offset" />
          </mxGeometry>
        </mxCell>
        <mxCell id="v_gDfItxkTuYzbll6fDR-3" value="Event Handler" style="rounded=1;whiteSpace=wrap;html=1;fillColor=#d5e8d4;strokeColor=#82b366;" parent="1" vertex="1">
          <mxGeometry x="130" y="320" width="120" height="60" as="geometry" />
        </mxCell>
        <mxCell id="v_gDfItxkTuYzbll6fDR-5" value="Store" style="rounded=1;whiteSpace=wrap;html=1;labelPosition=center;verticalLabelPosition=middle;align=center;verticalAlign=middle;fillColor=#ffe6cc;strokeColor=#d79b00;" parent="1" vertex="1">
          <mxGeometry x="460" y="140" width="240" height="200" as="geometry" />
        </mxCell>
        <mxCell id="v_gDfItxkTuYzbll6fDR-7" value="State" style="rounded=1;whiteSpace=wrap;html=1;labelPosition=center;verticalLabelPosition=top;align=center;verticalAlign=bottom;fillColor=#dae8fc;strokeColor=#6c8ebf;" parent="1" vertex="1">
          <mxGeometry x="495" y="283" width="170" height="100" as="geometry" />
        </mxCell>
        <mxCell id="v_gDfItxkTuYzbll6fDR-12" value="Mocked Hardware" style="rounded=1;whiteSpace=wrap;html=1;fillColor=#f8cecc;strokeColor=#b85450;" parent="1" vertex="1">
          <mxGeometry x="365" y="550" width="120" height="60" as="geometry" />
        </mxCell>
        <mxCell id="v_gDfItxkTuYzbll6fDR-14" value="Properties&lt;br&gt;&lt;div&gt;Changed&lt;/div&gt;&lt;div&gt;Signals&lt;br&gt;&lt;/div&gt;" style="edgeStyle=orthogonalEdgeStyle;rounded=0;orthogonalLoop=1;jettySize=auto;html=1;exitX=0.5;exitY=1;exitDx=0;exitDy=0;entryX=1;entryY=0.25;entryDx=0;entryDy=0;" parent="1" source="v_gDfItxkTuYzbll6fDR-13" target="v_gDfItxkTuYzbll6fDR-17" edge="1">
          <mxGeometry x="0.0086" relative="1" as="geometry">
            <mxPoint x="480" y="480" as="targetPoint" />
            <mxPoint as="offset" />
          </mxGeometry>
        </mxCell>
        <mxCell id="v_gDfItxkTuYzbll6fDR-13" value="Model" style="rounded=1;whiteSpace=wrap;html=1;fillColor=#f8cecc;strokeColor=#b85450;" parent="1" vertex="1">
          <mxGeometry x="520" y="313" width="120" height="60" as="geometry" />
        </mxCell>
        <mxCell id="v_gDfItxkTuYzbll6fDR-18" value="" style="endArrow=classic;startArrow=classic;html=1;rounded=0;exitX=1;exitY=0.5;exitDx=0;exitDy=0;entryX=1;entryY=0.5;entryDx=0;entryDy=0;" parent="1" source="v_gDfItxkTuYzbll6fDR-12" target="v_gDfItxkTuYzbll6fDR-13" edge="1">
          <mxGeometry width="50" height="50" relative="1" as="geometry">
            <mxPoint x="490" y="430" as="sourcePoint" />
            <mxPoint x="540" y="380" as="targetPoint" />
            <Array as="points">
              <mxPoint x="750" y="580" />
              <mxPoint x="750" y="343" />
            </Array>
          </mxGeometry>
        </mxCell>
      </root>
    </mxGraphModel>
  </diagram>
</mxfile>
